<?xml version="1.0" encoding="UTF-8" standalone="no"?>
<svg
   xmlns:dc="http://purl.org/dc/elements/1.1/"
   xmlns:cc="http://creativecommons.org/ns#"
   xmlns:rdf="http://www.w3.org/1999/02/22-rdf-syntax-ns#"
   xmlns:svg="http://www.w3.org/2000/svg"
   xmlns="http://www.w3.org/2000/svg"
   width="100%"
   height="100%"
   viewBox="0 0 64 64"
   version="1.1"
   xml:space="preserve"
   style="fill-rule:evenodd;clip-rule:evenodd;stroke-linecap:round;stroke-linejoin:round;stroke-miterlimit:2;"
   id="svg19">
  <metadata
   id="metadata25">
    <rdf:RDF>
      <cc:Work
   rdf:about="">
        <dc:format>image/svg+xml</dc:format>

        <dc:type
   rdf:resource="http://purl.org/dc/dcmitype/StillImage" />

      </cc:Work>

    </rdf:RDF>

  </metadata>

  <defs
   id="defs23" />

  
  <path
   d="M37.278,14.519c0,0 -14.109,-1.63 -21.203,-2.45c-2.195,-0.254 -4.179,1.32 -4.433,3.514c-0.347,3.001 -0.763,6.606 -0.763,6.606"
   style="fill:none;stroke:#222a33;stroke-width:2px;"
   id="path3" />

  <path
   d="M15.001,20.404c0,0 0.173,-1.491 0.322,-2.782c0.057,-0.492 0.307,-0.942 0.695,-1.249c0.388,-0.308 0.882,-0.449 1.374,-0.392c1.363,0.157 2.976,0.344 2.976,0.344"
   style="fill:none;stroke:#222a33;stroke-width:2px;"
   id="path5" />

  <path
   d="M53.202,19.117c-0.176,-1.046 -0.761,-1.98 -1.625,-2.595c-0.864,-0.615 -1.938,-0.862 -2.984,-0.685c-8.699,1.465 -29.449,4.96 -38.149,6.425c-1.046,0.176 -1.979,0.76 -2.594,1.625c-0.615,0.864 -0.862,1.937 -0.686,2.984c0.95,5.637 2.685,15.937 3.634,21.575c0.176,1.046 0.761,1.979 1.625,2.594c0.864,0.615 1.938,0.862 2.984,0.686c8.699,-1.465 29.449,-4.96 38.149,-6.425c1.046,-0.177 1.979,-0.761 2.594,-1.625c0.615,-0.865 0.862,-1.938 0.686,-2.984c-0.95,-5.637 -2.685,-15.938 -3.634,-21.575Z"
   style="fill:none;stroke:#222a33;stroke-width:2px;"
   id="path7" />

  <path
   d="M19.474,47.253c0,0 -1.501,0.253 -2.823,0.476c-0.523,0.088 -1.06,-0.035 -1.492,-0.343c-0.432,-0.308 -0.724,-0.774 -0.813,-1.297c-0.21,-1.25 -0.443,-2.632 -0.443,-2.632m30.623,-23.148c0,0 1.501,-0.253 2.823,-0.475c0.523,-0.089 1.06,0.035 1.492,0.342c0.432,0.308 0.724,0.775 0.813,1.298c0.21,1.249 0.443,2.631 0.443,2.631m-38.365,6.462c0,0 -0.233,-1.382 -0.443,-2.632c-0.088,-0.523 0.035,-1.06 0.343,-1.492c0.307,-0.432 0.774,-0.724 1.297,-0.812c1.322,-0.223 2.823,-0.476 2.823,-0.476"
   style="fill:none;stroke:#222a33;stroke-width:2px;"
   id="path9" />

  <path
   d="M52.268,36.996c0,0 0.233,1.382 0.443,2.631c0.088,0.523 -0.035,1.06 -0.343,1.492c-0.307,0.432 -0.774,0.724 -1.297,0.813c-1.322,0.222 -2.823,0.475 -2.823,0.475"
   style="fill:none;stroke:#222a33;stroke-width:2px;"
   id="path11" />

  <path
   d="M33.221,29.788c-0.514,-0.488 -1.244,-0.737 -1.996,-0.611c-1.271,0.214 -2.129,1.42 -1.915,2.69c0.214,1.27 1.42,2.128 2.69,1.914c1.27,-0.214 2.476,0.644 2.69,1.914c0.214,1.271 -0.644,2.476 -1.915,2.69c-0.752,0.127 -1.482,-0.123 -1.996,-0.611"
   style="fill:none;stroke:#222a33;stroke-width:2px;"
   id="path13" />

  <path
   d="M31.225,29.177l-0.311,-1.841"
   style="fill:none;stroke:#222a33;stroke-width:2px;"
   id="path15" />

  <path
   d="M33.086,40.226l-0.311,-1.841"
   style="fill:none;stroke:#222a33;stroke-width:2px;"
   id="path17" />

</svg>
